<svg width="74" height="46" viewBox="0 0 74 46" fill="none" xmlns="http://www.w3.org/2000/svg">
<rect width="74" height="46" fill="#D9D9D9"/>
<g filter="url(#filter0_d_118_5)">
<path d="M18.9277 10.314C17.834 10.314 16.7231 10.4336 15.5952 10.6729C14.4787 10.9007 13.3052 11.328 12.0747 11.9546C10.8556 12.5812 9.77897 13.373 8.84473 14.3301C7.91048 15.2871 7.14144 16.5632 6.5376 18.1582C5.93376 19.7419 5.63184 21.5363 5.63184 23.5415C5.63184 25.5467 5.93376 27.3468 6.5376 28.9419C7.14144 30.5256 7.91048 31.7902 8.84473 32.7358C9.77897 33.6701 10.8556 34.4505 12.0747 35.0771C13.3052 35.6924 14.4787 36.1139 15.5952 36.3418C16.7231 36.5811 17.834 36.7007 18.9277 36.7007C20.6481 36.7007 22.1919 36.5355 23.5591 36.2051C24.9263 35.8861 26.4757 35.3848 28.2075 34.7012C27.6948 33.2998 27.4385 31.5282 27.4385 29.3862V26.8569C27.4385 26.0252 29.3354 25.4784 33.1294 25.2163C33.2547 24.9429 33.2547 24.6751 33.1294 24.4131C30.1444 24.5042 27.8145 24.5498 26.1396 24.5498C24.7383 24.5498 22.7559 24.5042 20.1924 24.4131C20.1126 24.6751 20.1126 24.9429 20.1924 25.2163C22.8242 25.4784 24.1401 26.0252 24.1401 26.8569V33.7954C23.1603 34.9119 21.4229 35.4702 18.9277 35.4702C17.5947 35.4702 16.3813 35.2253 15.2876 34.7354C14.1938 34.2454 13.2881 33.6017 12.5703 32.8042C11.8639 31.9953 11.2715 31.061 10.793 30.0015C10.3145 28.9419 9.96696 27.8766 9.75049 26.8057C9.54541 25.7233 9.44287 24.6353 9.44287 23.5415C9.44287 22.1401 9.61377 20.7729 9.95557 19.4399C10.3088 18.0955 10.8385 16.8195 11.5449 15.6118C12.2627 14.3927 13.2539 13.4072 14.5186 12.6553C15.7946 11.9033 17.2643 11.5273 18.9277 11.5273C20.0443 11.5273 21.0811 11.7039 22.0381 12.0571C22.9951 12.4103 23.7812 12.8262 24.3965 13.3047C25.0231 13.7832 25.627 14.4269 26.208 15.2358C26.7891 16.0334 27.2277 16.7284 27.5239 17.3208C27.8315 17.9019 28.1961 18.6424 28.6177 19.5425C28.9709 19.4969 29.1816 19.3716 29.25 19.1665C28.4069 15.7827 27.1309 13.4642 25.4219 12.2109C23.7243 10.9463 21.5596 10.314 18.9277 10.314ZM28.2075 20.3115C27.7176 19.2178 27.2676 18.3177 26.8574 17.6113C26.4473 16.8936 25.8947 16.096 25.1997 15.2188C24.5161 14.3301 23.7015 13.6408 22.7559 13.1509C21.8102 12.661 20.7563 12.3647 19.5942 12.2622C18.2612 12.342 17.0877 12.7464 16.0737 13.4756C15.0597 14.1934 14.2736 15.1162 13.7153 16.2441C13.1571 17.3721 12.7412 18.5513 12.4678 19.7817C12.1943 21.0008 12.0576 22.2541 12.0576 23.5415C12.0576 25.3188 12.2969 27.0164 12.7754 28.6343C13.2539 30.2521 14.0913 31.682 15.2876 32.9238C16.4953 34.1543 17.9764 34.7695 19.731 34.7695C21.3602 34.7695 22.5964 34.3537 23.4395 33.522V26.8569C23.4395 26.4696 22.1691 26.1449 19.6284 25.8828C19.3208 25.0853 19.3436 24.3504 19.6968 23.6782C23.1034 23.8377 27.8145 23.8719 33.8301 23.7808C34.0921 24.4644 34.1035 25.165 33.8643 25.8828C31.3236 26.1449 30.0532 26.4696 30.0532 26.8569V29.3862C30.0532 31.4598 30.3779 33.3739 31.0273 35.1284C29.4209 35.7323 28.2246 36.1481 27.4385 36.376C26.6637 36.6152 25.5358 36.8431 24.0547 37.0596C22.5736 37.2874 20.8646 37.4014 18.9277 37.4014C17.7542 37.4014 16.5807 37.276 15.4072 37.0254C14.2337 36.7861 13.0033 36.3418 11.7158 35.6924C10.4284 35.0316 9.29476 34.2056 8.31494 33.2144C7.33512 32.2231 6.5262 30.8958 5.88818 29.2324C5.25016 27.5576 4.93115 25.6606 4.93115 23.5415C4.93115 21.4224 5.24447 19.5311 5.87109 17.8677C6.49772 16.1929 7.29525 14.8542 8.26367 13.8516C9.2321 12.849 10.3486 12.0173 11.6133 11.3564C12.8893 10.6842 14.1084 10.2285 15.2705 9.98926C16.444 9.73861 17.6175 9.61328 18.791 9.61328C20.6823 9.61328 22.7786 9.85254 25.0801 10.3311C27.3929 10.8096 28.8626 11.083 29.4893 11.1514C29.1247 12.6211 28.9823 13.9142 29.062 15.0308C29.1418 16.1359 29.4608 17.4917 30.019 19.0981C29.6886 19.7703 29.0848 20.1748 28.2075 20.3115Z" fill="black"/>
</g>
<g filter="url(#filter1_d_118_5)">
<path d="M40.3833 33.4023C40.3377 34.4391 39.0788 35.0715 36.6064 35.2993C36.5153 35.4816 36.5153 35.7493 36.6064 36.1025C38.7598 36.0342 40.2865 36 41.1865 36C42.6107 36 44.2342 36.0342 46.0571 36.1025C46.1483 35.7493 46.1483 35.4816 46.0571 35.2993C43.562 35.0715 42.3031 34.4391 42.2803 33.4023C42.1663 29.859 42.1094 26.7715 42.1094 24.1396C42.1094 20.5394 42.1549 17.355 42.2461 14.5864H42.417L50.7568 35.5728H50.9277L58.7207 14.9966H58.8745C58.9884 18.4259 59.0454 21.4736 59.0454 24.1396C59.0454 27.8424 58.9884 31.0041 58.8745 33.6245C58.8517 33.9207 58.715 34.1771 58.4644 34.3936C58.2251 34.5986 57.8662 34.7638 57.3877 34.8892C56.9092 35.0031 56.5047 35.0828 56.1743 35.1284C55.8439 35.174 55.4224 35.2196 54.9097 35.2651C54.8185 35.4474 54.8185 35.7152 54.9097 36.0684C56.8465 36 58.8289 35.9658 60.8569 35.9658C63.2837 35.9658 65.6193 36 67.8638 36.0684C67.9549 35.8633 67.9549 35.5955 67.8638 35.2651C64.0812 35.0373 62.1785 34.5018 62.1558 33.6587C62.019 30.0812 61.9507 26.4867 61.9507 22.875C61.9507 19.3773 61.9963 16.1929 62.0874 13.3218C62.1102 12.4787 64.0129 11.9432 67.7954 11.7153C67.8866 11.3849 67.8866 11.1172 67.7954 10.9121C65.5509 10.9805 62.5659 11.0146 58.8403 11.0146L51.5601 30.0186L44.5532 11.0146C41.7733 11.0146 39.3123 10.9691 37.1704 10.8779C37.0565 11.1058 37.0565 11.3223 37.1704 11.5273C38.5262 11.721 39.4092 12.0059 39.8193 12.3818C40.2409 12.7464 40.4631 13.5952 40.4858 14.9282C40.5656 17.731 40.6055 20.3799 40.6055 22.875C40.6055 26.3271 40.5314 29.8363 40.3833 33.4023ZM39.6826 33.4023C39.8307 29.8135 39.9048 26.3044 39.9048 22.875C39.9048 20.3799 39.8649 17.731 39.7852 14.9282C39.7624 13.88 39.5573 13.2078 39.1699 12.9116C38.7939 12.604 37.9736 12.3647 36.709 12.1938C36.39 11.4989 36.4014 10.8153 36.7432 10.1431C39.3636 10.257 42.7702 10.314 46.9629 10.314L52.5684 25.2847L58.3447 10.314C61.3981 10.314 64.7705 10.2684 68.4619 10.1772C68.6898 10.9178 68.7126 11.6527 68.5303 12.3818C66.0124 12.6325 64.742 12.9686 64.7192 13.3901C64.6167 15.5321 64.5654 18.6937 64.5654 22.875C64.5654 27.193 64.6395 30.7648 64.7876 33.5903C64.8104 34.0119 66.0807 34.348 68.5986 34.5986C68.7809 35.3278 68.7581 36.0627 68.5303 36.8032C64.8389 36.7121 62.6912 36.6665 62.0874 36.6665C61.1759 36.6665 58.6239 36.7121 54.4312 36.8032C54.1463 36.0057 54.1463 35.2708 54.4312 34.5986C56.9035 34.348 58.151 34.0233 58.1738 33.6245C58.2878 30.9585 58.3447 27.7969 58.3447 24.1396C58.3447 21.2913 58.3333 19.2007 58.3105 17.8677L51.4062 36.2734H50.2612L42.8101 17.4917V24.1396C42.8101 26.7715 42.867 29.859 42.981 33.4023C43.0037 34.0176 44.2513 34.4277 46.7236 34.6328C47.0085 35.3164 47.0085 36.0513 46.7236 36.8374C43.3171 36.7007 39.7795 36.7007 36.1108 36.8374C35.8374 36.0513 35.8374 35.3164 36.1108 34.6328C38.4692 34.4049 39.6598 33.9948 39.6826 33.4023Z" fill="black"/>
</g>
<defs>
<filter id="filter0_d_118_5" x="0.931152" y="9.61328" width="37.292" height="35.7881" filterUnits="userSpaceOnUse" color-interpolation-filters="sRGB">
<feFlood flood-opacity="0" result="BackgroundImageFix"/>
<feColorMatrix in="SourceAlpha" type="matrix" values="0 0 0 0 0 0 0 0 0 0 0 0 0 0 0 0 0 0 127 0" result="hardAlpha"/>
<feOffset dy="4"/>
<feGaussianBlur stdDeviation="2"/>
<feComposite in2="hardAlpha" operator="out"/>
<feColorMatrix type="matrix" values="0 0 0 0 0 0 0 0 0 0 0 0 0 0 0 0 0 0 0.25 0"/>
<feBlend mode="normal" in2="BackgroundImageFix" result="effect1_dropShadow_118_5"/>
<feBlend mode="normal" in="SourceGraphic" in2="effect1_dropShadow_118_5" result="shape"/>
</filter>
<filter id="filter1_d_118_5" x="31.7007" y="10.1431" width="41.1714" height="34.6943" filterUnits="userSpaceOnUse" color-interpolation-filters="sRGB">
<feFlood flood-opacity="0" result="BackgroundImageFix"/>
<feColorMatrix in="SourceAlpha" type="matrix" values="0 0 0 0 0 0 0 0 0 0 0 0 0 0 0 0 0 0 127 0" result="hardAlpha"/>
<feOffset dy="4"/>
<feGaussianBlur stdDeviation="2"/>
<feComposite in2="hardAlpha" operator="out"/>
<feColorMatrix type="matrix" values="0 0 0 0 0 0 0 0 0 0 0 0 0 0 0 0 0 0 0.25 0"/>
<feBlend mode="normal" in2="BackgroundImageFix" result="effect1_dropShadow_118_5"/>
<feBlend mode="normal" in="SourceGraphic" in2="effect1_dropShadow_118_5" result="shape"/>
</filter>
</defs>
</svg>
