<svg width="287" height="37" viewBox="0 0 287 37" fill="none" xmlns="http://www.w3.org/2000/svg">
<g filter="url(#filter0_d_5_2)">
<path d="M18.9277 1.31396C17.834 1.31396 16.7231 1.43359 15.5952 1.67285C14.4787 1.90072 13.3052 2.32796 12.0747 2.95459C10.8556 3.58122 9.77897 4.37305 8.84473 5.33008C7.91048 6.28711 7.14144 7.56315 6.5376 9.1582C5.93376 10.7419 5.63184 12.5363 5.63184 14.5415C5.63184 16.5467 5.93376 18.3468 6.5376 19.9419C7.14144 21.5256 7.91048 22.7902 8.84473 23.7358C9.77897 24.6701 10.8556 25.4505 12.0747 26.0771C13.3052 26.6924 14.4787 27.1139 15.5952 27.3418C16.7231 27.5811 17.834 27.7007 18.9277 27.7007C20.6481 27.7007 22.1919 27.5355 23.5591 27.2051C24.9263 26.8861 26.4757 26.3848 28.2075 25.7012C27.6948 24.2998 27.4385 22.5282 27.4385 20.3862V17.8569C27.4385 17.0252 29.3354 16.4784 33.1294 16.2163C33.2547 15.9429 33.2547 15.6751 33.1294 15.4131C30.1444 15.5042 27.8145 15.5498 26.1396 15.5498C24.7383 15.5498 22.7559 15.5042 20.1924 15.4131C20.1126 15.6751 20.1126 15.9429 20.1924 16.2163C22.8242 16.4784 24.1401 17.0252 24.1401 17.8569V24.7954C23.1603 25.9119 21.4229 26.4702 18.9277 26.4702C17.5947 26.4702 16.3813 26.2253 15.2876 25.7354C14.1938 25.2454 13.2881 24.6017 12.5703 23.8042C11.8639 22.9953 11.2715 22.061 10.793 21.0015C10.3145 19.9419 9.96696 18.8766 9.75049 17.8057C9.54541 16.7233 9.44287 15.6353 9.44287 14.5415C9.44287 13.1401 9.61377 11.7729 9.95557 10.4399C10.3088 9.09554 10.8385 7.8195 11.5449 6.61182C12.2627 5.39274 13.2539 4.40723 14.5186 3.65527C15.7946 2.90332 17.2643 2.52734 18.9277 2.52734C20.0443 2.52734 21.0811 2.70394 22.0381 3.05713C22.9951 3.41032 23.7812 3.82617 24.3965 4.30469C25.0231 4.7832 25.627 5.42692 26.208 6.23584C26.7891 7.03337 27.2277 7.72835 27.5239 8.3208C27.8315 8.90186 28.1961 9.64242 28.6177 10.5425C28.9709 10.4969 29.1816 10.3716 29.25 10.1665C28.4069 6.78271 27.1309 4.46419 25.4219 3.21094C23.7243 1.94629 21.5596 1.31396 18.9277 1.31396ZM28.2075 11.3115C27.7176 10.2178 27.2676 9.31771 26.8574 8.61133C26.4473 7.89355 25.8947 7.09603 25.1997 6.21875C24.5161 5.33008 23.7015 4.64079 22.7559 4.15088C21.8102 3.66097 20.7563 3.36475 19.5942 3.26221C18.2612 3.34196 17.0877 3.74642 16.0737 4.47559C15.0597 5.19336 14.2736 6.11621 13.7153 7.24414C13.1571 8.37207 12.7412 9.55127 12.4678 10.7817C12.1943 12.0008 12.0576 13.2541 12.0576 14.5415C12.0576 16.3188 12.2969 18.0164 12.7754 19.6343C13.2539 21.2521 14.0913 22.682 15.2876 23.9238C16.4953 25.1543 17.9764 25.7695 19.731 25.7695C21.3602 25.7695 22.5964 25.3537 23.4395 24.522V17.8569C23.4395 17.4696 22.1691 17.1449 19.6284 16.8828C19.3208 16.0853 19.3436 15.3504 19.6968 14.6782C23.1034 14.8377 27.8145 14.8719 33.8301 14.7808C34.0921 15.4644 34.1035 16.165 33.8643 16.8828C31.3236 17.1449 30.0532 17.4696 30.0532 17.8569V20.3862C30.0532 22.4598 30.3779 24.3739 31.0273 26.1284C29.4209 26.7323 28.2246 27.1481 27.4385 27.376C26.6637 27.6152 25.5358 27.8431 24.0547 28.0596C22.5736 28.2874 20.8646 28.4014 18.9277 28.4014C17.7542 28.4014 16.5807 28.276 15.4072 28.0254C14.2337 27.7861 13.0033 27.3418 11.7158 26.6924C10.4284 26.0316 9.29476 25.2056 8.31494 24.2144C7.33512 23.2231 6.5262 21.8958 5.88818 20.2324C5.25016 18.5576 4.93115 16.6606 4.93115 14.5415C4.93115 12.4224 5.24447 10.5311 5.87109 8.86768C6.49772 7.19287 7.29525 5.85417 8.26367 4.85156C9.2321 3.84896 10.3486 3.01725 11.6133 2.35645C12.8893 1.68424 14.1084 1.22852 15.2705 0.989258C16.444 0.738607 17.6175 0.613281 18.791 0.613281C20.6823 0.613281 22.7786 0.852539 25.0801 1.33105C27.3929 1.80957 28.8626 2.08301 29.4893 2.15137C29.1247 3.62109 28.9823 4.91423 29.062 6.03076C29.1418 7.1359 29.4608 8.4917 30.019 10.0981C29.6886 10.7703 29.0848 11.1748 28.2075 11.3115ZM50.6807 3.26221C49.8034 3.33057 49.0173 3.54134 48.3223 3.89453C47.6273 4.24772 47.0177 4.70915 46.4937 5.27881C45.9696 5.83708 45.5195 6.48079 45.1436 7.20996C44.779 7.92773 44.4771 8.69108 44.2378 9.5C44.0099 10.3089 43.839 11.1463 43.7251 12.0122C43.6226 12.8667 43.5713 13.7098 43.5713 14.5415C43.5713 15.3732 43.6226 16.222 43.7251 17.0879C43.839 17.9424 44.0156 18.7741 44.2549 19.583C44.4941 20.3919 44.7961 21.1553 45.1606 21.873C45.5366 22.5908 45.9867 23.2288 46.5107 23.7871C47.0462 24.334 47.6558 24.7783 48.3394 25.1201C49.0343 25.4619 49.8148 25.667 50.6807 25.7354C51.5693 25.667 52.3612 25.4619 53.0562 25.1201C53.7511 24.7669 54.3607 24.3169 54.8848 23.77C55.4202 23.2118 55.8703 22.5737 56.2349 21.856C56.6108 21.1268 56.9128 20.3634 57.1406 19.5659C57.3799 18.757 57.5508 17.9253 57.6533 17.0708C57.7673 16.2049 57.8242 15.3618 57.8242 14.5415C57.8242 13.7098 57.7673 12.8667 57.6533 12.0122C57.5508 11.1463 57.3799 10.3089 57.1406 9.5C56.9128 8.67969 56.6108 7.91064 56.2349 7.19287C55.8703 6.4637 55.4202 5.81999 54.8848 5.26172C54.3607 4.70345 53.7454 4.24772 53.0391 3.89453C52.3441 3.54134 51.5579 3.33057 50.6807 3.26221ZM50.0825 26.4702C48.9546 26.4702 47.9463 26.305 47.0576 25.9746C46.1689 25.6328 45.3828 25.1771 44.6992 24.6074C44.027 24.0264 43.4517 23.3485 42.9731 22.5737C42.506 21.799 42.1187 20.973 41.811 20.0957C41.5148 19.207 41.2983 18.2899 41.1616 17.3442C41.0249 16.3872 40.9565 15.453 40.9565 14.5415C40.9565 13.63 41.0249 12.7015 41.1616 11.7559C41.2983 10.7988 41.5148 9.87598 41.811 8.9873C42.1073 8.09863 42.4946 7.26123 42.9731 6.4751C43.4517 5.68896 44.027 5.00537 44.6992 4.42432C45.3714 3.84326 46.1519 3.38184 47.0405 3.04004C47.9406 2.69824 48.9546 2.52734 50.0825 2.52734C51.1193 2.52734 52.0479 2.69824 52.8682 3.04004C53.6885 3.37044 54.4062 3.83187 55.0215 4.42432C55.6481 5.00537 56.1836 5.68896 56.6279 6.4751C57.0723 7.26123 57.4312 8.09863 57.7046 8.9873C57.9894 9.87598 58.1945 10.7988 58.3198 11.7559C58.4565 12.7015 58.5249 13.63 58.5249 14.5415C58.5249 15.453 58.4622 16.3815 58.3369 17.3271C58.2116 18.2614 58.0065 19.1729 57.7217 20.0615C57.4482 20.9388 57.0894 21.7705 56.645 22.5566C56.2121 23.3314 55.6823 24.0093 55.0557 24.5903C54.429 25.1714 53.7056 25.6328 52.8853 25.9746C52.0649 26.305 51.1307 26.4702 50.0825 26.4702ZM50.0825 27.7007C50.8687 27.7007 51.7174 27.6209 52.6289 27.4614C53.5404 27.3019 54.4461 27.0285 55.3462 26.6411C56.2576 26.2537 57.1349 25.7354 57.978 25.0859C58.8211 24.4365 59.5617 23.6276 60.1997 22.6592C60.8491 21.6794 61.3675 20.5229 61.7549 19.1899C62.1423 17.8455 62.3359 16.2961 62.3359 14.5415C62.3359 12.8211 62.1423 11.3001 61.7549 9.97852C61.3789 8.64551 60.8719 7.4891 60.2339 6.50928C59.5959 5.52946 58.861 4.70915 58.0293 4.04834C57.1976 3.38753 56.326 2.85775 55.4146 2.45898C54.5031 2.04883 53.5859 1.7583 52.6631 1.5874C51.7516 1.40511 50.8914 1.31396 50.0825 1.31396C49.2964 1.31396 48.4305 1.39372 47.4849 1.55322C46.5392 1.70133 45.5879 1.96908 44.6309 2.35645C43.6738 2.73242 42.7453 3.24512 41.8452 3.89453C40.9451 4.54395 40.1476 5.35856 39.4526 6.33838C38.7576 7.3182 38.1994 8.486 37.7778 9.8418C37.3563 11.1862 37.1455 12.7528 37.1455 14.5415C37.1455 16.2733 37.3449 17.8 37.7437 19.1216C38.1538 20.4432 38.695 21.5939 39.3672 22.5737C40.0394 23.5422 40.8141 24.3568 41.6914 25.0176C42.5801 25.667 43.5029 26.1911 44.46 26.5898C45.417 26.9886 46.3797 27.2734 47.3481 27.4443C48.3166 27.6152 49.228 27.7007 50.0825 27.7007ZM50.6807 28.4697C48.3906 28.4697 46.3626 28.1336 44.5967 27.4614C42.8307 26.8006 41.3439 25.8664 40.1362 24.6587C38.9285 23.4396 38.0114 21.9756 37.3848 20.2666C36.7581 18.5462 36.4448 16.6379 36.4448 14.5415C36.4448 12.4451 36.7581 10.5425 37.3848 8.8335C38.0114 7.11312 38.9285 5.64909 40.1362 4.44141C41.3439 3.22233 42.8307 2.28239 44.5967 1.62158C46.3626 0.949382 48.3906 0.613281 50.6807 0.613281C52.834 0.613281 54.7879 0.920898 56.5425 1.53613C58.3084 2.15137 59.8123 3.05143 61.0542 4.23633C62.3075 5.40983 63.2702 6.86247 63.9424 8.59424C64.626 10.326 64.9678 12.3084 64.9678 14.5415C64.9678 16.786 64.626 18.7741 63.9424 20.5059C63.2702 22.2262 62.3075 23.6789 61.0542 24.8638C59.8123 26.0487 58.3084 26.943 56.5425 27.5469C54.7879 28.1621 52.834 28.4697 50.6807 28.4697ZM82.9463 3.26221C82.069 3.33057 81.2829 3.54134 80.5879 3.89453C79.8929 4.24772 79.2834 4.70915 78.7593 5.27881C78.2352 5.83708 77.7852 6.48079 77.4092 7.20996C77.0446 7.92773 76.7427 8.69108 76.5034 9.5C76.2756 10.3089 76.1047 11.1463 75.9907 12.0122C75.8882 12.8667 75.8369 13.7098 75.8369 14.5415C75.8369 15.3732 75.8882 16.222 75.9907 17.0879C76.1047 17.9424 76.2812 18.7741 76.5205 19.583C76.7598 20.3919 77.0617 21.1553 77.4263 21.873C77.8022 22.5908 78.2523 23.2288 78.7764 23.7871C79.3118 24.334 79.9214 24.7783 80.605 25.1201C81.3 25.4619 82.0804 25.667 82.9463 25.7354C83.835 25.667 84.6268 25.4619 85.3218 25.1201C86.0168 24.7669 86.6263 24.3169 87.1504 23.77C87.6859 23.2118 88.1359 22.5737 88.5005 21.856C88.8765 21.1268 89.1784 20.3634 89.4062 19.5659C89.6455 18.757 89.8164 17.9253 89.9189 17.0708C90.0329 16.2049 90.0898 15.3618 90.0898 14.5415C90.0898 13.7098 90.0329 12.8667 89.9189 12.0122C89.8164 11.1463 89.6455 10.3089 89.4062 9.5C89.1784 8.67969 88.8765 7.91064 88.5005 7.19287C88.1359 6.4637 87.6859 5.81999 87.1504 5.26172C86.6263 4.70345 86.0111 4.24772 85.3047 3.89453C84.6097 3.54134 83.8236 3.33057 82.9463 3.26221ZM82.3481 26.4702C81.2202 26.4702 80.2119 26.305 79.3232 25.9746C78.4346 25.6328 77.6484 25.1771 76.9648 24.6074C76.2926 24.0264 75.7173 23.3485 75.2388 22.5737C74.7716 21.799 74.3843 20.973 74.0767 20.0957C73.7804 19.207 73.564 18.2899 73.4272 17.3442C73.2905 16.3872 73.2222 15.453 73.2222 14.5415C73.2222 13.63 73.2905 12.7015 73.4272 11.7559C73.564 10.7988 73.7804 9.87598 74.0767 8.9873C74.3729 8.09863 74.7603 7.26123 75.2388 6.4751C75.7173 5.68896 76.2926 5.00537 76.9648 4.42432C77.637 3.84326 78.4175 3.38184 79.3062 3.04004C80.2062 2.69824 81.2202 2.52734 82.3481 2.52734C83.3849 2.52734 84.3135 2.69824 85.1338 3.04004C85.9541 3.37044 86.6719 3.83187 87.2871 4.42432C87.9137 5.00537 88.4492 5.68896 88.8936 6.4751C89.3379 7.26123 89.6968 8.09863 89.9702 8.9873C90.255 9.87598 90.4601 10.7988 90.5854 11.7559C90.7222 12.7015 90.7905 13.63 90.7905 14.5415C90.7905 15.453 90.7279 16.3815 90.6025 17.3271C90.4772 18.2614 90.2721 19.1729 89.9873 20.0615C89.7139 20.9388 89.355 21.7705 88.9106 22.5566C88.4777 23.3314 87.9479 24.0093 87.3213 24.5903C86.6947 25.1714 85.9712 25.6328 85.1509 25.9746C84.3306 26.305 83.3963 26.4702 82.3481 26.4702ZM82.3481 27.7007C83.1343 27.7007 83.9831 27.6209 84.8945 27.4614C85.806 27.3019 86.7118 27.0285 87.6118 26.6411C88.5233 26.2537 89.4006 25.7354 90.2437 25.0859C91.0868 24.4365 91.8273 23.6276 92.4653 22.6592C93.1147 21.6794 93.6331 20.5229 94.0205 19.1899C94.4079 17.8455 94.6016 16.2961 94.6016 14.5415C94.6016 12.8211 94.4079 11.3001 94.0205 9.97852C93.6445 8.64551 93.1375 7.4891 92.4995 6.50928C91.8615 5.52946 91.1266 4.70915 90.2949 4.04834C89.4632 3.38753 88.5916 2.85775 87.6802 2.45898C86.7687 2.04883 85.8516 1.7583 84.9287 1.5874C84.0173 1.40511 83.1571 1.31396 82.3481 1.31396C81.562 1.31396 80.6961 1.39372 79.7505 1.55322C78.8049 1.70133 77.8535 1.96908 76.8965 2.35645C75.9395 2.73242 75.0109 3.24512 74.1108 3.89453C73.2108 4.54395 72.4132 5.35856 71.7183 6.33838C71.0233 7.3182 70.465 8.486 70.0435 9.8418C69.6219 11.1862 69.4111 12.7528 69.4111 14.5415C69.4111 16.2733 69.6105 17.8 70.0093 19.1216C70.4194 20.4432 70.9606 21.5939 71.6328 22.5737C72.305 23.5422 73.0798 24.3568 73.957 25.0176C74.8457 25.667 75.7686 26.1911 76.7256 26.5898C77.6826 26.9886 78.6453 27.2734 79.6138 27.4443C80.5822 27.6152 81.4937 27.7007 82.3481 27.7007ZM82.9463 28.4697C80.6562 28.4697 78.6283 28.1336 76.8623 27.4614C75.0964 26.8006 73.6095 25.8664 72.4019 24.6587C71.1942 23.4396 70.277 21.9756 69.6504 20.2666C69.0238 18.5462 68.7104 16.6379 68.7104 14.5415C68.7104 12.4451 69.0238 10.5425 69.6504 8.8335C70.277 7.11312 71.1942 5.64909 72.4019 4.44141C73.6095 3.22233 75.0964 2.28239 76.8623 1.62158C78.6283 0.949382 80.6562 0.613281 82.9463 0.613281C85.0996 0.613281 87.0535 0.920898 88.8081 1.53613C90.5741 2.15137 92.078 3.05143 93.3198 4.23633C94.5731 5.40983 95.5358 6.86247 96.208 8.59424C96.8916 10.326 97.2334 12.3084 97.2334 14.5415C97.2334 16.786 96.8916 18.7741 96.208 20.5059C95.5358 22.2262 94.5731 23.6789 93.3198 24.8638C92.078 26.0487 90.5741 26.943 88.8081 27.5469C87.0535 28.1621 85.0996 28.4697 82.9463 28.4697ZM108.103 3.31348C109.344 3.16536 110.655 3.09131 112.033 3.09131C113.549 3.09131 114.904 3.33057 116.101 3.80908C117.308 4.2876 118.282 4.90283 119.023 5.65479C119.775 6.39535 120.39 7.27262 120.869 8.28662C121.347 9.30062 121.678 10.3089 121.86 11.3115C122.054 12.3027 122.15 13.3224 122.15 14.3706C122.15 17.8228 121.182 20.5856 119.245 22.6592C117.308 24.7327 114.517 25.7695 110.871 25.7695L108.068 25.7354C107.954 21.0072 107.897 17.4753 107.897 15.1396C107.897 10.9128 107.966 6.9707 108.103 3.31348ZM111.777 27.7007C107.96 27.7007 104.149 27.7463 100.344 27.8374C100.059 27.0513 100.059 26.3164 100.344 25.6328C102.816 25.3822 104.064 25.0461 104.086 24.6245C104.223 21.047 104.292 17.4639 104.292 13.875C104.292 10.2064 104.235 7.03337 104.121 4.35596C104.098 3.93441 102.827 3.59831 100.31 3.34766C100.116 2.61849 100.139 1.88363 100.378 1.14307C101.779 1.16585 106.143 1.17725 113.469 1.17725C115.052 1.17725 116.505 1.27409 117.827 1.46777C119.16 1.66146 120.515 2.05452 121.894 2.64697C123.273 3.22803 124.435 3.99137 125.38 4.93701C126.326 5.88265 127.095 7.15869 127.688 8.76514C128.28 10.3716 128.576 12.2515 128.576 14.4048C128.576 16.4556 128.229 18.2728 127.534 19.8564C126.839 21.4401 125.927 22.7161 124.799 23.6846C123.683 24.653 122.367 25.4505 120.852 26.0771C119.336 26.6924 117.844 27.1139 116.374 27.3418C114.904 27.5811 113.372 27.7007 111.777 27.7007ZM110.734 3.92871C110.598 7.92773 110.529 11.6647 110.529 15.1396C110.529 17.9652 110.575 21.2749 110.666 25.0688C114.255 24.9777 116.949 23.9694 118.75 22.0439C120.55 20.1185 121.45 17.5607 121.45 14.3706C121.45 13.1287 121.302 11.9438 121.005 10.8159C120.709 9.6766 120.236 8.57145 119.587 7.50049C118.938 6.42952 117.986 5.56364 116.733 4.90283C115.491 4.23063 114.027 3.87174 112.341 3.82617C111.783 3.82617 111.247 3.86035 110.734 3.92871ZM100.822 27.1025C103.272 27.0342 106.519 27 110.563 27C112.01 27 113.406 26.8918 114.75 26.6753C116.106 26.4474 117.479 26.0373 118.869 25.4448C120.259 24.8524 121.461 24.1004 122.475 23.189C123.489 22.2775 124.321 21.0641 124.97 19.5488C125.631 18.0335 125.961 16.3075 125.961 14.3706C125.961 6.04215 121.387 1.87793 112.238 1.87793C111.395 1.87793 110.199 1.89502 108.649 1.9292C107.1 1.96338 105.693 1.98047 104.428 1.98047C103.175 1.98047 101.984 1.94629 100.856 1.87793C100.765 2.08301 100.765 2.35075 100.856 2.68115C103.477 2.9318 104.799 3.47868 104.821 4.32178C104.935 6.99919 104.992 10.1836 104.992 13.875C104.992 17.4867 104.924 21.0812 104.787 24.6587C104.764 25.5018 103.443 26.0487 100.822 26.2993C100.708 26.5614 100.708 26.8291 100.822 27.1025ZM135.668 24.4023C135.623 25.4391 134.364 26.0715 131.892 26.2993C131.8 26.4816 131.8 26.7493 131.892 27.1025C134.045 27.0342 135.572 27 136.472 27C137.896 27 139.519 27.0342 141.342 27.1025C141.433 26.7493 141.433 26.4816 141.342 26.2993C138.847 26.0715 137.588 25.4391 137.565 24.4023C137.451 20.859 137.395 17.7715 137.395 15.1396C137.395 11.5394 137.44 8.35498 137.531 5.58643H137.702L146.042 26.5728H146.213L154.006 5.99658H154.16C154.274 9.42594 154.331 12.4736 154.331 15.1396C154.331 18.8424 154.274 22.0041 154.16 24.6245C154.137 24.9207 154 25.1771 153.75 25.3936C153.51 25.5986 153.151 25.7638 152.673 25.8892C152.194 26.0031 151.79 26.0828 151.459 26.1284C151.129 26.174 150.708 26.2196 150.195 26.2651C150.104 26.4474 150.104 26.7152 150.195 27.0684C152.132 27 154.114 26.9658 156.142 26.9658C158.569 26.9658 160.904 27 163.149 27.0684C163.24 26.8633 163.24 26.5955 163.149 26.2651C159.366 26.0373 157.464 25.5018 157.441 24.6587C157.304 21.0812 157.236 17.4867 157.236 13.875C157.236 10.3773 157.281 7.19287 157.373 4.32178C157.395 3.47868 159.298 2.9432 163.081 2.71533C163.172 2.38493 163.172 2.11719 163.081 1.91211C160.836 1.98047 157.851 2.01465 154.125 2.01465L146.845 21.0186L139.838 2.01465C137.058 2.01465 134.597 1.96908 132.456 1.87793C132.342 2.10579 132.342 2.32227 132.456 2.52734C133.811 2.72103 134.694 3.00586 135.104 3.38184C135.526 3.74642 135.748 4.59521 135.771 5.92822C135.851 8.73096 135.891 11.3799 135.891 13.875C135.891 17.3271 135.817 20.8363 135.668 24.4023ZM134.968 24.4023C135.116 20.8135 135.19 17.3044 135.19 13.875C135.19 11.3799 135.15 8.73096 135.07 5.92822C135.048 4.88005 134.842 4.20785 134.455 3.91162C134.079 3.604 133.259 3.36475 131.994 3.19385C131.675 2.49886 131.687 1.81527 132.028 1.14307C134.649 1.257 138.055 1.31396 142.248 1.31396L147.854 16.2847L153.63 1.31396C156.683 1.31396 160.056 1.26839 163.747 1.17725C163.975 1.91781 163.998 2.65267 163.815 3.38184C161.298 3.63249 160.027 3.96859 160.004 4.39014C159.902 6.53206 159.851 9.69368 159.851 13.875C159.851 18.193 159.925 21.7648 160.073 24.5903C160.096 25.0119 161.366 25.348 163.884 25.5986C164.066 26.3278 164.043 27.0627 163.815 27.8032C160.124 27.7121 157.976 27.6665 157.373 27.6665C156.461 27.6665 153.909 27.7121 149.716 27.8032C149.431 27.0057 149.431 26.2708 149.716 25.5986C152.189 25.348 153.436 25.0233 153.459 24.6245C153.573 21.9585 153.63 18.7969 153.63 15.1396C153.63 12.2913 153.618 10.2007 153.596 8.86768L146.691 27.2734H145.546L138.095 8.4917V15.1396C138.095 17.7715 138.152 20.859 138.266 24.4023C138.289 25.0176 139.536 25.4277 142.009 25.6328C142.294 26.3164 142.294 27.0513 142.009 27.8374C138.602 27.7007 135.065 27.7007 131.396 27.8374C131.123 27.0513 131.123 26.3164 131.396 25.6328C133.754 25.4049 134.945 24.9948 134.968 24.4023ZM180.905 3.26221C180.028 3.33057 179.242 3.54134 178.547 3.89453C177.852 4.24772 177.242 4.70915 176.718 5.27881C176.194 5.83708 175.744 6.48079 175.368 7.20996C175.004 7.92773 174.702 8.69108 174.462 9.5C174.235 10.3089 174.064 11.1463 173.95 12.0122C173.847 12.8667 173.796 13.7098 173.796 14.5415C173.796 15.3732 173.847 16.222 173.95 17.0879C174.064 17.9424 174.24 18.7741 174.479 19.583C174.719 20.3919 175.021 21.1553 175.385 21.873C175.761 22.5908 176.211 23.2288 176.735 23.7871C177.271 24.334 177.88 24.7783 178.564 25.1201C179.259 25.4619 180.039 25.667 180.905 25.7354C181.794 25.667 182.586 25.4619 183.281 25.1201C183.976 24.7669 184.585 24.3169 185.109 23.77C185.645 23.2118 186.095 22.5737 186.459 21.856C186.835 21.1268 187.137 20.3634 187.365 19.5659C187.604 18.757 187.775 17.9253 187.878 17.0708C187.992 16.2049 188.049 15.3618 188.049 14.5415C188.049 13.7098 187.992 12.8667 187.878 12.0122C187.775 11.1463 187.604 10.3089 187.365 9.5C187.137 8.67969 186.835 7.91064 186.459 7.19287C186.095 6.4637 185.645 5.81999 185.109 5.26172C184.585 4.70345 183.97 4.24772 183.264 3.89453C182.569 3.54134 181.783 3.33057 180.905 3.26221ZM180.307 26.4702C179.179 26.4702 178.171 26.305 177.282 25.9746C176.394 25.6328 175.607 25.1771 174.924 24.6074C174.252 24.0264 173.676 23.3485 173.198 22.5737C172.731 21.799 172.343 20.973 172.036 20.0957C171.739 19.207 171.523 18.2899 171.386 17.3442C171.25 16.3872 171.181 15.453 171.181 14.5415C171.181 13.63 171.25 12.7015 171.386 11.7559C171.523 10.7988 171.739 9.87598 172.036 8.9873C172.332 8.09863 172.719 7.26123 173.198 6.4751C173.676 5.68896 174.252 5.00537 174.924 4.42432C175.596 3.84326 176.376 3.38184 177.265 3.04004C178.165 2.69824 179.179 2.52734 180.307 2.52734C181.344 2.52734 182.272 2.69824 183.093 3.04004C183.913 3.37044 184.631 3.83187 185.246 4.42432C185.873 5.00537 186.408 5.68896 186.853 6.4751C187.297 7.26123 187.656 8.09863 187.929 8.9873C188.214 9.87598 188.419 10.7988 188.544 11.7559C188.681 12.7015 188.75 13.63 188.75 14.5415C188.75 15.453 188.687 16.3815 188.562 17.3271C188.436 18.2614 188.231 19.1729 187.946 20.0615C187.673 20.9388 187.314 21.7705 186.87 22.5566C186.437 23.3314 185.907 24.0093 185.28 24.5903C184.654 25.1714 183.93 25.6328 183.11 25.9746C182.29 26.305 181.355 26.4702 180.307 26.4702ZM180.307 27.7007C181.093 27.7007 181.942 27.6209 182.854 27.4614C183.765 27.3019 184.671 27.0285 185.571 26.6411C186.482 26.2537 187.36 25.7354 188.203 25.0859C189.046 24.4365 189.786 23.6276 190.424 22.6592C191.074 21.6794 191.592 20.5229 191.979 19.1899C192.367 17.8455 192.561 16.2961 192.561 14.5415C192.561 12.8211 192.367 11.3001 191.979 9.97852C191.604 8.64551 191.097 7.4891 190.458 6.50928C189.82 5.52946 189.086 4.70915 188.254 4.04834C187.422 3.38753 186.551 2.85775 185.639 2.45898C184.728 2.04883 183.811 1.7583 182.888 1.5874C181.976 1.40511 181.116 1.31396 180.307 1.31396C179.521 1.31396 178.655 1.39372 177.709 1.55322C176.764 1.70133 175.812 1.96908 174.855 2.35645C173.898 2.73242 172.97 3.24512 172.07 3.89453C171.17 4.54395 170.372 5.35856 169.677 6.33838C168.982 7.3182 168.424 8.486 168.002 9.8418C167.581 11.1862 167.37 12.7528 167.37 14.5415C167.37 16.2733 167.569 17.8 167.968 19.1216C168.378 20.4432 168.92 21.5939 169.592 22.5737C170.264 23.5422 171.039 24.3568 171.916 25.0176C172.805 25.667 173.728 26.1911 174.685 26.5898C175.642 26.9886 176.604 27.2734 177.573 27.4443C178.541 27.6152 179.453 27.7007 180.307 27.7007ZM180.905 28.4697C178.615 28.4697 176.587 28.1336 174.821 27.4614C173.055 26.8006 171.569 25.8664 170.361 24.6587C169.153 23.4396 168.236 21.9756 167.609 20.2666C166.983 18.5462 166.669 16.6379 166.669 14.5415C166.669 12.4451 166.983 10.5425 167.609 8.8335C168.236 7.11312 169.153 5.64909 170.361 4.44141C171.569 3.22233 173.055 2.28239 174.821 1.62158C176.587 0.949382 178.615 0.613281 180.905 0.613281C183.059 0.613281 185.013 0.920898 186.767 1.53613C188.533 2.15137 190.037 3.05143 191.279 4.23633C192.532 5.40983 193.495 6.86247 194.167 8.59424C194.851 10.326 195.192 12.3084 195.192 14.5415C195.192 16.786 194.851 18.7741 194.167 20.5059C193.495 22.2262 192.532 23.6789 191.279 24.8638C190.037 26.0487 188.533 26.943 186.767 27.5469C185.013 28.1621 183.059 28.4697 180.905 28.4697ZM213.171 3.26221C212.294 3.33057 211.507 3.54134 210.812 3.89453C210.118 4.24772 209.508 4.70915 208.984 5.27881C208.46 5.83708 208.01 6.48079 207.634 7.20996C207.269 7.92773 206.967 8.69108 206.728 9.5C206.5 10.3089 206.329 11.1463 206.215 12.0122C206.113 12.8667 206.062 13.7098 206.062 14.5415C206.062 15.3732 206.113 16.222 206.215 17.0879C206.329 17.9424 206.506 18.7741 206.745 19.583C206.984 20.3919 207.286 21.1553 207.651 21.873C208.027 22.5908 208.477 23.2288 209.001 23.7871C209.536 24.334 210.146 24.7783 210.83 25.1201C211.525 25.4619 212.305 25.667 213.171 25.7354C214.06 25.667 214.851 25.4619 215.546 25.1201C216.241 24.7669 216.851 24.3169 217.375 23.77C217.91 23.2118 218.361 22.5737 218.725 21.856C219.101 21.1268 219.403 20.3634 219.631 19.5659C219.87 18.757 220.041 17.9253 220.144 17.0708C220.257 16.2049 220.314 15.3618 220.314 14.5415C220.314 13.7098 220.257 12.8667 220.144 12.0122C220.041 11.1463 219.87 10.3089 219.631 9.5C219.403 8.67969 219.101 7.91064 218.725 7.19287C218.361 6.4637 217.91 5.81999 217.375 5.26172C216.851 4.70345 216.236 4.24772 215.529 3.89453C214.834 3.54134 214.048 3.33057 213.171 3.26221ZM212.573 26.4702C211.445 26.4702 210.437 26.305 209.548 25.9746C208.659 25.6328 207.873 25.1771 207.189 24.6074C206.517 24.0264 205.942 23.3485 205.463 22.5737C204.996 21.799 204.609 20.973 204.301 20.0957C204.005 19.207 203.789 18.2899 203.652 17.3442C203.515 16.3872 203.447 15.453 203.447 14.5415C203.447 13.63 203.515 12.7015 203.652 11.7559C203.789 10.7988 204.005 9.87598 204.301 8.9873C204.597 8.09863 204.985 7.26123 205.463 6.4751C205.942 5.68896 206.517 5.00537 207.189 4.42432C207.862 3.84326 208.642 3.38184 209.531 3.04004C210.431 2.69824 211.445 2.52734 212.573 2.52734C213.61 2.52734 214.538 2.69824 215.358 3.04004C216.179 3.37044 216.896 3.83187 217.512 4.42432C218.138 5.00537 218.674 5.68896 219.118 6.4751C219.562 7.26123 219.921 8.09863 220.195 8.9873C220.48 9.87598 220.685 10.7988 220.81 11.7559C220.947 12.7015 221.015 13.63 221.015 14.5415C221.015 15.453 220.952 16.3815 220.827 17.3271C220.702 18.2614 220.497 19.1729 220.212 20.0615C219.938 20.9388 219.58 21.7705 219.135 22.5566C218.702 23.3314 218.173 24.0093 217.546 24.5903C216.919 25.1714 216.196 25.6328 215.375 25.9746C214.555 26.305 213.621 26.4702 212.573 26.4702ZM212.573 27.7007C213.359 27.7007 214.208 27.6209 215.119 27.4614C216.031 27.3019 216.936 27.0285 217.836 26.6411C218.748 26.2537 219.625 25.7354 220.468 25.0859C221.311 24.4365 222.052 23.6276 222.69 22.6592C223.339 21.6794 223.858 20.5229 224.245 19.1899C224.632 17.8455 224.826 16.2961 224.826 14.5415C224.826 12.8211 224.632 11.3001 224.245 9.97852C223.869 8.64551 223.362 7.4891 222.724 6.50928C222.086 5.52946 221.351 4.70915 220.52 4.04834C219.688 3.38753 218.816 2.85775 217.905 2.45898C216.993 2.04883 216.076 1.7583 215.153 1.5874C214.242 1.40511 213.382 1.31396 212.573 1.31396C211.787 1.31396 210.921 1.39372 209.975 1.55322C209.029 1.70133 208.078 1.96908 207.121 2.35645C206.164 2.73242 205.236 3.24512 204.335 3.89453C203.435 4.54395 202.638 5.35856 201.943 6.33838C201.248 7.3182 200.69 8.486 200.268 9.8418C199.847 11.1862 199.636 12.7528 199.636 14.5415C199.636 16.2733 199.835 17.8 200.234 19.1216C200.644 20.4432 201.185 21.5939 201.857 22.5737C202.53 23.5422 203.304 24.3568 204.182 25.0176C205.07 25.667 205.993 26.1911 206.95 26.5898C207.907 26.9886 208.87 27.2734 209.838 27.4443C210.807 27.6152 211.718 27.7007 212.573 27.7007ZM213.171 28.4697C210.881 28.4697 208.853 28.1336 207.087 27.4614C205.321 26.8006 203.834 25.8664 202.626 24.6587C201.419 23.4396 200.502 21.9756 199.875 20.2666C199.248 18.5462 198.935 16.6379 198.935 14.5415C198.935 12.4451 199.248 10.5425 199.875 8.8335C200.502 7.11312 201.419 5.64909 202.626 4.44141C203.834 3.22233 205.321 2.28239 207.087 1.62158C208.853 0.949382 210.881 0.613281 213.171 0.613281C215.324 0.613281 217.278 0.920898 219.033 1.53613C220.799 2.15137 222.303 3.05143 223.544 4.23633C224.798 5.40983 225.76 6.86247 226.433 8.59424C227.116 10.326 227.458 12.3084 227.458 14.5415C227.458 16.786 227.116 18.7741 226.433 20.5059C225.76 22.2262 224.798 23.6789 223.544 24.8638C222.303 26.0487 220.799 26.943 219.033 27.5469C217.278 28.1621 215.324 28.4697 213.171 28.4697ZM238.327 3.31348C239.569 3.16536 240.879 3.09131 242.258 3.09131C243.773 3.09131 245.129 3.33057 246.325 3.80908C247.533 4.2876 248.507 4.90283 249.248 5.65479C250 6.39535 250.615 7.27262 251.093 8.28662C251.572 9.30062 251.902 10.3089 252.084 11.3115C252.278 12.3027 252.375 13.3224 252.375 14.3706C252.375 17.8228 251.407 20.5856 249.47 22.6592C247.533 24.7327 244.742 25.7695 241.096 25.7695L238.293 25.7354C238.179 21.0072 238.122 17.4753 238.122 15.1396C238.122 10.9128 238.19 6.9707 238.327 3.31348ZM242.001 27.7007C238.185 27.7007 234.374 27.7463 230.568 27.8374C230.284 27.0513 230.284 26.3164 230.568 25.6328C233.041 25.3822 234.288 25.0461 234.311 24.6245C234.448 21.047 234.516 17.4639 234.516 13.875C234.516 10.2064 234.459 7.03337 234.345 4.35596C234.322 3.93441 233.052 3.59831 230.534 3.34766C230.34 2.61849 230.363 1.88363 230.603 1.14307C232.004 1.16585 236.368 1.17725 243.693 1.17725C245.277 1.17725 246.73 1.27409 248.051 1.46777C249.384 1.66146 250.74 2.05452 252.119 2.64697C253.497 3.22803 254.659 3.99137 255.605 4.93701C256.551 5.88265 257.32 7.15869 257.912 8.76514C258.505 10.3716 258.801 12.2515 258.801 14.4048C258.801 16.4556 258.453 18.2728 257.758 19.8564C257.063 21.4401 256.152 22.7161 255.024 23.6846C253.907 24.653 252.591 25.4505 251.076 26.0771C249.561 26.6924 248.068 27.1139 246.599 27.3418C245.129 27.5811 243.597 27.7007 242.001 27.7007ZM240.959 3.92871C240.822 7.92773 240.754 11.6647 240.754 15.1396C240.754 17.9652 240.799 21.2749 240.891 25.0688C244.479 24.9777 247.174 23.9694 248.974 22.0439C250.774 20.1185 251.674 17.5607 251.674 14.3706C251.674 13.1287 251.526 11.9438 251.23 10.8159C250.934 9.6766 250.461 8.57145 249.812 7.50049C249.162 6.42952 248.211 5.56364 246.958 4.90283C245.716 4.23063 244.252 3.87174 242.565 3.82617C242.007 3.82617 241.472 3.86035 240.959 3.92871ZM231.047 27.1025C233.496 27.0342 236.743 27 240.788 27C242.235 27 243.631 26.8918 244.975 26.6753C246.331 26.4474 247.704 26.0373 249.094 25.4448C250.484 24.8524 251.686 24.1004 252.7 23.189C253.714 22.2775 254.545 21.0641 255.195 19.5488C255.856 18.0335 256.186 16.3075 256.186 14.3706C256.186 6.04215 251.612 1.87793 242.463 1.87793C241.62 1.87793 240.424 1.89502 238.874 1.9292C237.325 1.96338 235.917 1.98047 234.653 1.98047C233.4 1.98047 232.209 1.94629 231.081 1.87793C230.99 2.08301 230.99 2.35075 231.081 2.68115C233.701 2.9318 235.023 3.47868 235.046 4.32178C235.16 6.99919 235.217 10.1836 235.217 13.875C235.217 17.4867 235.148 21.0812 235.012 24.6587C234.989 25.5018 233.667 26.0487 231.047 26.2993C230.933 26.5614 230.933 26.8291 231.047 27.1025ZM272.097 0.613281C273.726 0.613281 275.224 0.841146 276.591 1.29688C277.958 1.7526 279.189 2.04883 280.283 2.18555C279.679 4.30469 279.656 6.58903 280.214 9.03857C279.633 9.52848 278.967 9.81331 278.215 9.89307C278.124 9.6766 277.958 9.22656 277.719 8.54297C277.491 7.84798 277.269 7.27832 277.053 6.83398C276.848 6.38965 276.557 5.88265 276.181 5.31299C275.817 4.74333 275.327 4.29329 274.711 3.96289C274.108 3.62109 273.413 3.38753 272.626 3.26221C271.476 3.36475 270.587 3.71794 269.96 4.32178C269.334 4.92562 269.021 5.70605 269.021 6.66309C269.021 7.6429 269.271 8.45182 269.772 9.08984C270.274 9.71647 270.923 10.1893 271.721 10.5083C272.53 10.8159 273.418 11.0894 274.387 11.3286C275.355 11.5565 276.318 11.8413 277.275 12.1831C278.232 12.5135 279.109 12.9521 279.907 13.499C280.716 14.0345 281.371 14.8377 281.872 15.9087C282.373 16.9797 282.624 18.2842 282.624 19.8223C282.624 21.6908 282.083 23.2972 281 24.6416C279.918 25.986 278.642 26.9487 277.172 27.5298C275.703 28.1108 274.199 28.4014 272.661 28.4014C269.277 28.4014 265.927 27.6551 262.612 26.1626C262.68 24.6929 262.714 23.7928 262.714 23.4624C262.714 21.6167 262.538 19.6343 262.185 17.5151C263.21 17.0252 264.355 17.0024 265.62 17.4468C266.041 20.033 266.856 22.0155 268.063 23.394C269.283 24.7726 270.616 25.5417 272.062 25.7012C273.418 25.61 274.461 25.1714 275.19 24.3853C275.931 23.5877 276.301 22.5794 276.301 21.3604C276.301 20.335 276.062 19.4691 275.583 18.7627C275.104 18.0449 274.472 17.4924 273.686 17.105C272.9 16.7062 272.045 16.3473 271.123 16.0283C270.211 15.7093 269.288 15.3732 268.354 15.02C267.42 14.6554 266.56 14.2225 265.773 13.7212C264.999 13.2199 264.372 12.5192 263.894 11.6191C263.415 10.7191 263.176 9.62533 263.176 8.33789C263.176 7.17578 263.358 6.1333 263.723 5.21045C264.099 4.2876 264.583 3.54704 265.175 2.98877C265.779 2.4305 266.48 1.96338 267.277 1.5874C268.086 1.21143 268.884 0.955078 269.67 0.818359C270.467 0.681641 271.276 0.613281 272.097 0.613281ZM272.097 1.31396C271.14 1.31396 270.211 1.4279 269.311 1.65576C268.411 1.87223 267.534 2.23112 266.679 2.73242C265.836 3.23372 265.158 3.96859 264.646 4.93701C264.133 5.90544 263.876 7.03906 263.876 8.33789C263.876 9.48861 264.116 10.4798 264.594 11.3115C265.073 12.1318 265.699 12.7699 266.474 13.2256C267.26 13.6813 268.12 14.0858 269.055 14.439C269.989 14.7808 270.912 15.1283 271.823 15.4814C272.746 15.8346 273.601 16.2334 274.387 16.6777C275.173 17.1221 275.805 17.743 276.284 18.5405C276.762 19.3267 277.001 20.2666 277.001 21.3604C277.001 22.8757 276.517 24.1004 275.549 25.0347C274.58 25.9689 273.208 26.436 271.43 26.436C269.721 26.436 268.132 25.724 266.662 24.2998C265.192 22.8757 264.224 20.7451 263.757 17.9082C263.529 17.7601 263.261 17.7601 262.954 17.9082C263.261 19.6969 263.415 21.5483 263.415 23.4624C263.415 23.9979 263.392 24.7555 263.347 25.7354C266.172 27.0456 268.867 27.7007 271.43 27.7007C273.549 27.7007 275.509 27.0741 277.309 25.8208C279.109 24.5562 280.009 22.7902 280.009 20.5229C280.009 19.2355 279.759 18.1475 279.257 17.2588C278.756 16.3587 278.101 15.658 277.292 15.1567C276.483 14.6554 275.594 14.2225 274.626 13.8579C273.658 13.4933 272.695 13.1515 271.738 12.8325C270.781 12.5021 269.898 12.1375 269.089 11.7388C268.291 11.34 267.642 10.776 267.141 10.0469C266.639 9.30632 266.389 8.41195 266.389 7.36377C266.389 5.89404 266.884 4.72054 267.875 3.84326C268.867 2.96598 270.274 2.52734 272.097 2.52734C275.264 2.52734 277.446 4.72054 278.642 9.10693C278.995 9.1639 279.24 9.08415 279.377 8.86768C279.001 6.08773 278.175 4.13379 276.899 3.00586C275.634 1.87793 274.034 1.31396 272.097 1.31396Z" fill="black"/>
</g>
<defs>
<filter id="filter0_d_5_2" x="0.931152" y="0.613281" width="285.693" height="35.8564" filterUnits="userSpaceOnUse" color-interpolation-filters="sRGB">
<feFlood flood-opacity="0" result="BackgroundImageFix"/>
<feColorMatrix in="SourceAlpha" type="matrix" values="0 0 0 0 0 0 0 0 0 0 0 0 0 0 0 0 0 0 127 0" result="hardAlpha"/>
<feOffset dy="4"/>
<feGaussianBlur stdDeviation="2"/>
<feComposite in2="hardAlpha" operator="out"/>
<feColorMatrix type="matrix" values="0 0 0 0 0 0 0 0 0 0 0 0 0 0 0 0 0 0 0.25 0"/>
<feBlend mode="normal" in2="BackgroundImageFix" result="effect1_dropShadow_5_2"/>
<feBlend mode="normal" in="SourceGraphic" in2="effect1_dropShadow_5_2" result="shape"/>
</filter>
</defs>
</svg>
